<?xml version="1.0" encoding="utf-8"?>
<!-- Generator: Adobe Illustrator 16.0.4, SVG Export Plug-In . SVG Version: 6.00 Build 0)  -->
<!DOCTYPE svg PUBLIC "-//W3C//DTD SVG 1.1//EN" "http://www.w3.org/Graphics/SVG/1.1/DTD/svg11.dtd">
<svg version="1.1" id="Layer_1" xmlns="http://www.w3.org/2000/svg" xmlns:xlink="http://www.w3.org/1999/xlink" x="0px" y="0px"
	 width="164px" height="164px" viewBox="0 0 164 164" enable-background="new 0 0 164 164" xml:space="preserve">
<rect fill="none" width="164" height="164"/>
<path fill="#0074B2" d="M114.967,97.438c-2.426-1.147-5.074-1.376-7.738-0.688c-1.148-4.235-3.221-8.467-5.764-12.015
	c7.275-2.746,11.883-7.328,11.883-15.221c0-4.006-1.152-8.121-3.232-12.13c1.268-0.452,2.426-1.249,3.232-2.282
	c2.773-3.777,2.426-11.212-2.652-14.998c-5.074-3.661-12.801-2.17-15.686,1.605c-0.113,0.228-0.232,0.34-0.348,0.576
	c-3.922-1.947-8.195-2.981-12.688-2.981c-4.496,0-8.768,1.153-12.691,2.981c-0.111-0.236-0.227-0.349-0.338-0.576
	c-2.771-3.775-10.617-5.267-15.691-1.605c-5.07,3.662-5.426,11.221-2.656,14.998c0.805,1.137,1.969,1.83,3.232,2.282
	c-2.08,4.009-3.232,8.237-3.232,12.13c0,7.785,4.619,12.475,11.887,15.107c-2.648,3.661-4.619,7.788-5.768,12.012
	c-2.539-0.571-5.314-0.449-7.736,0.688c-6.566,3.097-8.881,11.673-5.303,19.34c3.578,7.661,11.885,11.333,18.35,8.245
	c1.385-0.694,2.646-1.609,3.688-2.754c4.498,2.288,10.146,3.436,16.26,3.436c6.111,0,11.762-1.147,16.266-3.436
	c1.041,1.145,2.191,2.06,3.688,2.754c6.578,3.088,14.762-0.694,18.34-8.245C123.959,109.109,121.543,100.418,114.967,97.438z
	 M70,62.002C70,59.809,71.809,58,74.002,58C76.191,58,78,59.809,78,62.002C78,64.189,76.191,66,74.002,66
	C71.809,66,70,64.189,70,62.002z M82,78c-3.309,0-6-4.333-6-7.674C76,66.856,78.691,66,82,66c3.311,0,6,0.993,6,4.326
	C88,73.667,85.311,78,82,78z M89.998,66C87.811,66,86,64.193,86,61.997C86,59.802,87.811,58,89.998,58
	C92.193,58,94,59.802,94,61.997C94,64.281,92.193,66,89.998,66z"/>
</svg>
