<?xml version="1.0" encoding="utf-8"?>
<!-- Generator: Adobe Illustrator 16.0.4, SVG Export Plug-In . SVG Version: 6.00 Build 0)  -->
<!DOCTYPE svg PUBLIC "-//W3C//DTD SVG 1.1//EN" "http://www.w3.org/Graphics/SVG/1.1/DTD/svg11.dtd">
<svg version="1.1" id="Layer_1" xmlns="http://www.w3.org/2000/svg" xmlns:xlink="http://www.w3.org/1999/xlink" x="0px" y="0px"
	 width="164px" height="164px" viewBox="0 0 164 164" enable-background="new 0 0 164 164" xml:space="preserve">
<rect fill="none" width="164" height="164"/>
<path fill="#0074B2" d="M118.141,77.423c-4.475-4.147-9.434-4.787-13.307-3.512C96.441,76.576,90.689,85.204,90.053,98h-4.686
	c0.191-11.221,2.666-15.569,8.816-30.474c3.148-7.452,1.213-16.499-4.479-24.905c-2.055-2.979-4.717-5.746-7.621-8.621
	c-3.023,2.875-5.568,5.642-7.621,8.621c-5.689,8.406-7.625,17.453-4.598,24.905C76.018,82.436,78.486,86.686,78.676,98h-4.697
	c-0.736-12.796-6.377-21.424-14.766-24.089c-3.75-1.275-8.717-0.636-13.312,3.515c-5.562,5.105-7.26,19.154,9.32,21.817
	c-1.695-2.234-1.574-7.236,1.936-9.046c2.662-1.17,5.688-0.746,7.141,0.321c1.99,1.103,3.889,4.128,4.359,7.481H62v8h16
	c-0.238,5.271-3.42,8.355-8.018,10.167c0.604,1.7,3.389,5.108,7.143,4.893c0.723,3.619,1.447,5.64,4.84,8.94
	c3.383-3.301,4.111-5.321,4.838-8.94c3.75,0.216,6.533-3.192,7.139-4.893c-4.6-1.812-7.699-5.007-7.941-10.167h16v-8h-6.736
	c0.473-3.375,2.373-6.471,4.365-7.481c1.455-1.067,4.479-1.491,7.143-0.321c3.506,1.702,3.625,6.705,1.936,9.046
	C125.285,96.478,123.709,82.426,118.141,77.423z"/>
</svg>
