<?xml version="1.0" encoding="utf-8"?>
<!-- Generator: Adobe Illustrator 16.0.4, SVG Export Plug-In . SVG Version: 6.00 Build 0)  -->
<!DOCTYPE svg PUBLIC "-//W3C//DTD SVG 1.1//EN" "http://www.w3.org/Graphics/SVG/1.1/DTD/svg11.dtd">
<svg version="1.1" id="Layer_1" xmlns="http://www.w3.org/2000/svg" xmlns:xlink="http://www.w3.org/1999/xlink" x="0px" y="0px"
	 width="164px" height="164px" viewBox="0 0 164 164" enable-background="new 0 0 164 164" xml:space="preserve">
<rect fill="none" width="164" height="164"/>
<g>
	<path fill="#0074B2" d="M94.371,58H69.625c-2.154,0-3.773,2-3.617,4.418l7.547,65.059c0.111,1.414,1.307,2.523,2.66,2.523h11.566
		c1.354,0,2.549-1.109,2.66-2.523l7.547-65.059C98.145,60,96.527,58,94.371,58z M82,54c5.527,0,10-4.478,10-9.998
		C92,38.473,87.527,34,82,34s-10,4.473-10,10.002C72,49.522,76.473,54,82,54z M105.998,58c4.414,0,8.004-3.574,8.004-8
		c0-4.418-3.59-8-8.004-8s-7.996,3.582-7.996,8C98.002,54.426,101.584,58,105.998,58z M57.996,58C62.41,58,66,54.426,66,50
		c0-4.418-3.59-8-8.004-8S50,45.582,50,50C50,54.426,53.582,58,57.996,58z M115.279,62h-13.322c0.002,0.227,0.039,0.447,0.023,0.676
		l-0.008,0.102l-0.012,0.102l-4.195,36.158l1.902,17.07c0.082,1.061,0.98,1.893,1.994,1.893h8.676c1.014,0,1.912-0.832,1.994-1.893
		l5.66-50.794C118.109,63.5,116.896,62,115.279,62z M62.023,62.777l-0.008-0.102C62,62.447,62.035,62.227,62.039,62h-13.32
		c-1.615,0-2.83,1.5-2.713,3.313l5.66,50.794c0.082,1.061,0.98,1.893,1.994,1.893h8.676c1.014,0,1.912-0.832,1.994-1.893l1.9-17.059
		l-4.195-36.17L62.023,62.777z"/>
</g>
</svg>
