<?xml version="1.0" encoding="utf-8"?>
<!-- Generator: Adobe Illustrator 16.0.4, SVG Export Plug-In . SVG Version: 6.00 Build 0)  -->
<!DOCTYPE svg PUBLIC "-//W3C//DTD SVG 1.1//EN" "http://www.w3.org/Graphics/SVG/1.1/DTD/svg11.dtd">
<svg version="1.1" id="Layer_1" xmlns="http://www.w3.org/2000/svg" xmlns:xlink="http://www.w3.org/1999/xlink" x="0px" y="0px"
	 width="164px" height="164px" viewBox="0 0 164 164" enable-background="new 0 0 164 164" xml:space="preserve">
<rect fill="none" width="164" height="164"/>
<path fill="#0074B2" d="M102,33.999c-4.4,0-8,3.6-8,8v48l8,8v28c0,2.209,1.791,4,4,4s4-1.791,4-4v-84
	C110,37.599,106.4,33.999,102,33.999z"/>
<path fill="#0074B2" d="M82,33.999c-2.209,0-4,1.791-4,4v20h-4v-20c0-2.209-1.791-4-4-4s-4,1.791-4,4v20h-4v-20c0-2.209-1.791-4-4-4
	s-4,1.791-4,4v28c0,7.411,5.131,13.632,12,15.429v44.573c0,2.209,1.791,4,4,4s4-1.791,4-4V81.428c6.869-1.797,12-8.018,12-15.429
	v-28C86,35.79,84.209,33.999,82,33.999z"/>
</svg>
