<?xml version="1.0" encoding="utf-8"?>
<!-- Generator: Adobe Illustrator 16.0.4, SVG Export Plug-In . SVG Version: 6.00 Build 0)  -->
<!DOCTYPE svg PUBLIC "-//W3C//DTD SVG 1.1//EN" "http://www.w3.org/Graphics/SVG/1.1/DTD/svg11.dtd">
<svg version="1.1" id="Layer_1" xmlns="http://www.w3.org/2000/svg" xmlns:xlink="http://www.w3.org/1999/xlink" x="0px" y="0px"
	 width="164px" height="164px" viewBox="0 0 164 164" enable-background="new 0 0 164 164" xml:space="preserve">
<rect fill="none" width="164" height="164"/>
<path fill="#0074B2" d="M105.312,82.685C102.291,79.664,98.275,78,94.004,78c0,0-0.002,0-0.004,0V62h16v-8c0,0-9.398,0-16,0V38h-8
	v16c-2.838,0-5.584,0.001-8,0V38h-8v15.998c-8.822,0-16,7.178-16,16C54,78.821,61.178,86,70,86v16H54v8h16v16h8v-16h8v16h8v-16
	c8.822,0,16-7.178,16-16C110,89.726,108.336,85.707,105.312,82.685z M86,61.999V78h-8V61.998L86,61.999z M62,69.998
	c0-4.411,3.59-8,8-8V78C65.59,78,62,74.41,62,69.998z M78,102V86h8v16H78z M94,102V86c0.002,0,0.004,0,0.004,0
	c2.135,0,4.141,0.832,5.652,2.342C101.168,89.854,102,91.862,102,94C102,98.411,98.41,102,94,102z"/>
</svg>
