<?xml version="1.0" encoding="utf-8"?>
<!-- Generator: Adobe Illustrator 16.0.4, SVG Export Plug-In . SVG Version: 6.00 Build 0)  -->
<!DOCTYPE svg PUBLIC "-//W3C//DTD SVG 1.1//EN" "http://www.w3.org/Graphics/SVG/1.1/DTD/svg11.dtd">
<svg version="1.1" id="Layer_1" xmlns="http://www.w3.org/2000/svg" xmlns:xlink="http://www.w3.org/1999/xlink" x="0px" y="0px"
	 width="164px" height="164px" viewBox="0 0 164 164" enable-background="new 0 0 164 164" xml:space="preserve">
<rect fill="none" width="164" height="164"/>
<path fill="#0074B2" d="M125.863,85.318c-0.043-0.242-0.027-0.484-0.117-0.723l-12-32C113.16,51.034,111.668,50,110,50H90l1.199-1.6
	c0.91-1.213,1.055-2.834,0.379-4.189C90.9,42.856,89.516,42,88,42H76c-1.516,0-2.9,0.856-3.578,2.211
	c-0.676,1.355-0.531,2.977,0.379,4.189L74,50H54c-1.668,0-3.16,1.034-3.746,2.596l-12,32c-0.09,0.237-0.074,0.479-0.115,0.72
	C38.098,85.547,38,85.757,38,86c0,0.037,0.012,0.071,0.012,0.107c0,0.056,0.012,0.107,0.016,0.162C38.176,94.965,45.27,102,54,102
	c8.729,0,15.824-7.034,15.973-15.729c0.004-0.057,0.016-0.107,0.016-0.164C69.99,86.07,70,86.037,70,86
	c0-0.242-0.098-0.452-0.137-0.682c-0.043-0.242-0.027-0.484-0.117-0.723L59.773,58H78v52l-19.998,4v8H106v-8l-19.998-4H86V58h18.227
	l-9.973,26.596c-0.09,0.237-0.074,0.479-0.115,0.72C94.098,85.547,94,85.757,94,86c0,0.037,0.012,0.071,0.012,0.107
	c0,0.056,0.012,0.107,0.016,0.162C94.176,94.965,101.27,102,110,102c8.729,0,15.824-7.034,15.973-15.729
	c0.004-0.057,0.016-0.107,0.016-0.164C125.99,86.07,126,86.037,126,86C126,85.758,125.902,85.548,125.863,85.318z M60.227,82H47.773
	L54,65.392L60.227,82z M103.773,82L110,65.392L116.227,82H103.773z"/>
</svg>
