<?xml version="1.0" encoding="utf-8"?>
<!-- Generator: Adobe Illustrator 16.0.4, SVG Export Plug-In . SVG Version: 6.00 Build 0)  -->
<!DOCTYPE svg PUBLIC "-//W3C//DTD SVG 1.1//EN" "http://www.w3.org/Graphics/SVG/1.1/DTD/svg11.dtd">
<svg version="1.1" id="Layer_1" xmlns="http://www.w3.org/2000/svg" xmlns:xlink="http://www.w3.org/1999/xlink" x="0px" y="0px"
	 width="164px" height="164px" viewBox="0 0 164 164" enable-background="new 0 0 164 164" xml:space="preserve">
<rect fill="none" width="164" height="164"/>
<path fill="#0074B2" d="M114.961,75.963v-5.48C114.961,50.334,98.629,34,78.482,34C58.332,34,42,50.334,42,70.482
	c0,11.273,7.964,21.346,16.001,28.039V130H94v-12h12c4.721,0,8-3.281,8-8V94h4c4,0,4,0,4-4L114.961,75.963z M97.812,71.047
	c-1.846,0-3.574-0.549-5.006-1.49c-1.438,0.977-3.174,1.545-5.047,1.545c-1.869,0-3.605-0.576-5.053-1.561
	c-1.014,1.137-2.408,2.004-3.742,2.522c-2.801,1.196-5.025,4.56-5.025,8.105v9.828h-5.131v0.002h-3.393
	c-0.67-4.377-2.863-8.197-6.535-10.334v-0.032c-3.006-1.296-5.164-4.17-5.424-7.574C51.938,70.445,51,68.283,51,65.897
	c0-2.053,0.693-3.942,1.846-5.457c-0.199-0.748-0.307-1.534-0.307-2.348c0-4.059,2.688-7.487,6.387-8.608
	c1.406-3.138,4.557-5.331,8.195-5.331c0.73,0,1.426,0.095,2.1,0.259C70.832,42.919,72.98,42,75.334,42
	c1.84,0,3.543,0.55,4.965,1.497c1.264-0.68,2.701-1.062,4.234-1.062c3.094,0,5.828,1.561,7.453,3.935
	c0.217-0.014,0.426-0.032,0.654-0.032c4.311,0,7.895,3.029,8.787,7.076c3.281,1.398,5.572,4.654,5.572,8.446
	C107,66.932,102.895,71.05,97.812,71.047z"/>
</svg>
