<?xml version="1.0" encoding="utf-8"?>
<!-- Generator: Adobe Illustrator 16.0.4, SVG Export Plug-In . SVG Version: 6.00 Build 0)  -->
<!DOCTYPE svg PUBLIC "-//W3C//DTD SVG 1.1//EN" "http://www.w3.org/Graphics/SVG/1.1/DTD/svg11.dtd">
<svg version="1.1" id="Layer_1" xmlns="http://www.w3.org/2000/svg" xmlns:xlink="http://www.w3.org/1999/xlink" x="0px" y="0px"
	 width="164px" height="164px" viewBox="0 0 164 164" enable-background="new 0 0 164 164" xml:space="preserve">
<rect fill="none" width="164" height="164"/>
<g>
	<path fill="#0074B2" d="M93.18,96.129c0.027,0.43,0.043,0.867,0.043,1.305c0,11.602-9.438,21.043-21.039,21.043
		s-21.043-9.441-21.043-21.043c0-11.055,8.574-20.137,19.418-20.969l5.875-7.277c-1.387-0.207-2.805-0.316-4.25-0.316
		c-15.746,0-28.562,12.816-28.562,28.562c0,15.754,12.816,28.566,28.562,28.566c15.75,0,28.562-12.812,28.562-28.566
		c0-0.434-0.016-0.875-0.031-1.305H93.18z"/>
	<path fill="#0074B2" d="M112.418,38c-4.398,0-7.961,3.563-7.961,7.958c0,4.398,3.562,7.96,7.961,7.96
		c4.395,0,7.961-3.562,7.961-7.96C120.379,41.563,116.812,38,112.418,38"/>
	<path fill="#0074B2" d="M110.934,82.329H91.848l14.227-18.153c2.461-3.144,1.906-7.691-1.234-10.152
		c-0.285-0.223-0.586-0.414-0.895-0.59c-0.152-0.098-0.305-0.196-0.473-0.273L89.16,46.329c-1.094-0.52-2.367-0.484-3.43,0.093
		L64.961,57.79c-1.82,0.996-2.492,3.281-1.496,5.101c0.684,1.254,1.977,1.958,3.305,1.958c0.609,0,1.23-0.149,1.801-0.461
		l19.082-10.441l5.867,2.797L76.324,78.691c-2.461,3.146-1.91,7.688,1.234,10.153c1.074,0.844,2.316,1.332,3.582,1.48
		c0.293,0.066,0.594,0.105,0.906,0.105h24.348l-2.379,20.945c-0.254,2.226,1.344,4.227,3.566,4.48
		c0.156,0.02,0.312,0.027,0.461,0.027c2.031,0,3.789-1.527,4.02-3.594l2.895-25.453c0.129-1.145-0.234-2.293-1-3.152
		C113.188,82.82,112.09,82.329,110.934,82.329"/>
</g>
</svg>
