<?xml version="1.0" encoding="utf-8"?>
<!-- Generator: Adobe Illustrator 16.0.4, SVG Export Plug-In . SVG Version: 6.00 Build 0)  -->
<!DOCTYPE svg PUBLIC "-//W3C//DTD SVG 1.1//EN" "http://www.w3.org/Graphics/SVG/1.1/DTD/svg11.dtd">
<svg version="1.1" id="Layer_1" xmlns="http://www.w3.org/2000/svg" xmlns:xlink="http://www.w3.org/1999/xlink" x="0px" y="0px"
	 width="164px" height="164px" viewBox="0 0 164 164" enable-background="new 0 0 164 164" xml:space="preserve">
<rect fill="none" width="164" height="164"/>
<path fill="#0074B2" d="M66.002,54c5.527,0,10-4.478,10-9.998c0-5.529-4.473-10.002-10-10.002s-10,4.473-10,10.002
	C56.002,49.522,60.475,54,66.002,54z M98.002,54c5.527,0,10-4.478,10-9.998c0-5.529-4.473-10.002-10-10.002s-10,4.473-10,10.002
	C88.002,49.522,92.475,54,98.002,54z M110.373,58H53.627c-2.154,0-3.773,2-3.617,4.418l7.547,65.059
	c0.111,1.414,1.307,2.523,2.66,2.523h15.109l-5.318-32.687C69.891,95.5,71.105,94,72.721,94h18.559c1.617,0,2.83,1.5,2.713,3.313
	L88.674,130h15.109c1.354,0,2.549-1.109,2.66-2.523l7.547-65.059C114.146,60,112.529,58,110.373,58z M81.998,90
	c-4.414,0-7.996-3.574-7.996-8c0-4.418,3.582-8,7.996-8s8.004,3.582,8.004,8C90.002,86.426,86.412,90,81.998,90z"/>
</svg>
