<?xml version="1.0" encoding="utf-8"?>
<!-- Generator: Adobe Illustrator 16.0.4, SVG Export Plug-In . SVG Version: 6.00 Build 0)  -->
<!DOCTYPE svg PUBLIC "-//W3C//DTD SVG 1.1//EN" "http://www.w3.org/Graphics/SVG/1.1/DTD/svg11.dtd">
<svg version="1.1" id="Layer_1" xmlns="http://www.w3.org/2000/svg" xmlns:xlink="http://www.w3.org/1999/xlink" x="0px" y="0px"
	 width="164px" height="164px" viewBox="0 0 164 164" enable-background="new 0 0 164 164" xml:space="preserve">
<rect fill="none" width="164" height="164"/>
<g>
	<path fill="#0074B2" d="M81.992,40.001l-8.373,16.278c-0.949,1.772-2.666,1.615-4.369,0.623l-6.068-3.272l4.525,25.005
		c0.955,4.568-2.1,4.568-3.611,2.602L53.504,68.883l-1.723,6.271c-0.191,0.827-1.066,1.695-2.373,1.482l-13.395-2.924l3.516,13.314
		c0.752,2.963,1.342,4.193-0.758,4.977L34,94.338l23.061,19.501c0.904,0.737,1.365,2.067,1.047,3.263l-2.021,6.899
		c7.938-0.952,17.973-1.81,25.906-2.757c0.711-0.006,17.975,1.805,25.916,2.757l-2.02-6.899c-0.32-1.195,0.141-2.525,1.057-3.263
		L130,94.338l-4.773-2.334c-2.104-0.783-1.508-2.014-0.758-4.977l3.52-13.314l-13.395,2.924c-1.316,0.213-2.188-0.655-2.383-1.482
		l-1.723-6.271L99.896,81.236c-1.508,1.978-4.551,1.978-3.607-2.602l4.523-25.005l-6.07,3.272c-1.701,0.992-3.412,1.149-4.352-0.623
		L81.992,40.001z"/>
</g>
</svg>
